<?xml version="1.0" encoding="UTF-8"?>
<svg id="_Слой_1" data-name="Слой 1" xmlns="http://www.w3.org/2000/svg" viewBox="0 0 514.47 464.72">
  <defs>
    <style>
      .cls-1 {
        fill: #ba9649;
      }

      .cls-2 {
        fill: #fff;
      }
    </style>
  </defs>
  <path class="cls-2" d="M298.52,171.17c5.16,4.44,10.59,8.55,16.36,12.19l19.86,9.89c1.85,2.17,3.49,11.97,4.01,15.18.6,3.68,3,20.64,1.56,22.87-1.27,1.96-15.7,2.37-18.51,2.23-12.61-.61-24.4-7.04-37.02-8.57-7.61-.92-15.48.42-23.22-.06v11.03h25.67c.75,0,5.22-3.28,6.65-3.28.73.13,7.09,8.25,7.04,9.23-.03.66-6.3,11.23-6.96,11.28-1.32-.43-6.64-5.73-7.21-5.73h-19.2c-1.06,0-.78,6.7-.74,7.94,1.81,60.73.08,121.86.94,182.67-1.61,3.01-8.89,26.33-10.28,26.66-.79.19-1.17-.9-1.46-1.41-1.32-2.35-10.77-22.92-10.77-24.25v-191.61h-18c-.85,0-5.97,4.68-7.59,4.26-.57-.15-6.64-8.69-6.87-9.53-.12-.45-.14-.5.04-.94.19-.48,6.15-7.68,6.63-7.86,3.13.11,6.02,2.84,9.24,3.06,1.62.11,2.84-.49,4.29-.51,5.68-.09,11.38.11,17.06.02v-11.51c0-.13-1.6-.21-2.43-.69-3-1.76-4.08-5.03-3.78-8.4,8.5-.59,16.41-1.33,23.98-5.53,1.85-1.03,4.11-3.17,5.75-3.85,5.36-2.21,27.34-2.15,33.85-1.7,8.29.58,15.35,4.83,20.85,10.82.39.42,4.84,7.07,5.77,5.98-1.98-12.81-12.76-22.44-25.68-23.49-2.06-.17-6.95.46-8.39-.25-1.55-.75-.79-3.42-.94-4.82-.06-.6-.5-1.27-.5-1.42v-19.9ZM322.99,216.25c1.02-.88-5.7-5.44-6.4-5.83-8.67-4.91-20.25-5.43-28.63.32l35.03,5.51Z"/>
  <path class="cls-1" d="M440.56,361.11c-1.26,1.42-4.15,1.83-6.04,2.36-29.93,8.27-65,2.76-93.29-8.85-24.95-10.24-47.54-26.68-63.84-48.18,17.95,7.05,35.32,15.62,53.27,22.77,35.57,14.17,72.14,25,109.89,31.91Z"/>
  <path class="cls-1" d="M465.03,253.18c-11.45,25.07-43.83,33.91-69.32,35.04-33.57,1.48-69.07-12.28-93.36-35.03,17.86,3.21,35.38,8.14,53.26,11.28,22.95,4.03,48.04,5.23,71.21,2.08,13.48-1.84,26.76-5.97,38.22-13.36Z"/>
  <path class="cls-1" d="M426.65,313.14c.24,1.12-.14.77-.62,1.07-32.18,20.65-101.31.68-125.13-27.2-2.26-2.64-4.18-5.56-5.27-8.88,6.36,3.13,13.03,5.21,19.79,7.32,19.16,5.96,39.38,11.4,58.81,16.52,17.24,4.54,34.61,9.48,52.41,11.17Z"/>
  <path class="cls-1" d="M232.29,342.4c.11.88-1.02.41-1.54.35-21.39-2.85-44.21-23.34-55.76-40.68-18.28-27.45-19.8-62.95-17.07-94.92.66-.12.73.86.83,1.32,4.95,22.81,6.06,43.07,15.12,65.47,9.97,24.66,36.47,50.53,56.74,67.52.51.43.96.93,1.69.95Z"/>
  <path class="cls-1" d="M360.9,377.41c-1.32,1.52-4.6,1.93-6.62,2.25-22.97,3.7-51.46-4.87-69.43-19.54-4.54-3.71-9.35-8.51-11.77-13.9,28.7,11.82,58.23,21.73,87.81,31.18Z"/>
  <path class="cls-1" d="M232.29,313.13c-31.38-5.33-53.23-38.53-48.94-69.54,5.38,7.73,9.19,16.5,14.01,24.61,9.88,16.62,21.96,30.73,34.94,44.94Z"/>
  <path class="cls-2" d="M176,102.73c5.82,6.54,12.62,15.87,20.14,20.4.58.35,2.96.56,2.08,1.51-.2.22-4.24,2.02-5.24,2.69-22.13,14.69-28.78,39.93-27.88,65.42-9.52,1.19-16.34,9.82-24.51,14.59-9.24,5.39-18.35,6.41-28.85,4.46-.65-.12-8.48-1.85-7.58-2.73,2.44-.62,5.09-1.87,7.37-2.95,11.81-5.62,39.3-18.68,46.85-28.48.61-.8,3.59-5.11,1.67-5.48-1.39-.27-10.57,3.81-12.54,4.69-11.27,5.06-32.88,18.44-44.12,19.7-9.5,1.06-24-6.79-33.3-9.3.4-.64,1.01-.59,1.61-.79,25.65-8.55,57.27-12.58,80.59-26.89.75-.46,7.6-5.17,6.57-6.14-26.37,3.69-52.02,11.23-78.13,16.16-9.3,1.75-13.56,3.12-22.9-.32-6.65-2.45-14.43-7.59-16.06-14.88,1.74-.32,3.38.44,5.02.5,29.35,1.06,61.29-2.22,90.09-7.84,5.26-1.03,12-1.91,16.23-5.12-11.95-1.39-24.19-1.15-36.25-.98-22.64.32-47.62,2.91-70.06,1.48-13.08-.83-18.35-7.67-24.6-18.1l-5.85-11.17c14.93,4.84,30.82,6.92,46.38,9.04,23.97,3.26,59.42,8.5,82.89,6.24.53-.05,2.97-.17,2.69-1.13-5.12-2.69-11.17-3.93-16.79-5.29-32.72-7.93-68.95-11.48-100.78-21.58C13.79,95.05,7.39,83.28.56,67.76c-.3-.69-.66-1.31-.53-2.1,33.12,13.58,67.44,26.02,101.84,36.1,7.98,2.34,36.53,10.98,42.99,9.12,2.11-.61.72-1.32-.54-2.15-7.6-4.97-29.14-9.25-38.97-12.37-22.59-7.17-64.5-22.9-80.87-39.56C12.15,44.24,5.16,27.04,3.87,9.54l33.63,22.74c44.1,27.3,91.15,49.38,138.5,70.46Z"/>
  <path class="cls-2" d="M510.63,10.02c-1.52,17.52-8.22,34.65-20.62,47.26-15.9,16.18-55.63,31.52-77.51,38.6-11.7,3.79-30.99,7.31-41.06,12.68-1.12.6-4.35,2.2-1.91,2.9,5.01,1.44,21.67-3.2,27.47-4.69,24.77-6.39,48.84-15.34,73.09-23.36l44.38-16.79-8.39,16.79c-6.23,10.77-13.55,15.03-25.21,18.45-34.55,10.16-72.28,12.93-106.64,22.92-1.1.32-7.74,2.42-8.05,2.75-.67.7.43,1.06.93,1.19,4.02,1.08,10.87.84,15.16.74,27.58-.68,59.48-4.75,86.76-9.21,9.79-1.6,19.85-3.07,29.11-6.63l-7.29,13.57c-5.32,8.46-11.06,14.9-21.72,15.7-30.69,2.3-64.03-2.6-95.06-1.48-4.11.15-8.56.73-12.69.98-.23,1.11.12.77.61,1.08,5.64,3.56,28.52,6.39,36.17,7.48,19.84,2.85,39.84,5.22,59.94,4.88l14.61-.98c-2.37,9.25-13.15,14.95-21.98,16.63-7.81,1.49-16.82-1.29-24.66-2.88-16.3-3.31-32.45-7.46-48.77-10.74-7.16-1.44-14.36-3.19-21.68-3.5-1.22,1.03,6.72,5.94,7.35,6.31,13.81,8.06,30.98,12.07,46.02,17.31l35.4,9.94c-6.18,1.9-12.14,4.51-18.34,6.37-5.42,1.62-11.13,3.78-16.7,2.53-13.86-3.12-30.49-14.15-43.81-20.01-1.68-.74-10.74-4.77-11.84-3.75,1.47,7.27,10.57,12.51,16.54,16.31,12.43,7.91,26.21,14.24,39.6,20.38l.48.71c-14.34,4.52-26.51,4.06-39.22-4.21-5.02-3.27-12.6-10.73-17.87-12.35-1.58-.49-3.5.44-3.86-1.42-.72-3.78.18-10.27-.48-14.38-2.14-22.43-12.12-42.58-32.62-53.24,8.94-5.4,15.71-14,22.42-21.84,53.6-23.53,106.77-48.82,155.48-81.42l16.45-11.61Z"/>
  <path class="cls-1" d="M217.35,108.76l-10.25,8.69c-30.94-34.83-19.61-92.95,23.58-111.68,59.3-25.72,113.67,39.66,86.48,96.03-1.18,2.44-8.37,14.61-10.35,15.12-.41.11-.75.08-1.09-.17l-9.58-8.65c27.49-30.55,12.84-83.85-28.33-92.57-51.96-11-84.17,53.85-50.63,91.86l.17,1.37Z"/>
  <path class="cls-2" d="M219.33,190.82c-14.88,3.39-38.57,8.85-38.86,27.83,7.63-9.81,15.14-16.92,27.73-19.52,6.68-1.38,14.93-1.02,21.12-2.88,11.95-3.59,25.87-19.79,39.2-9.25,4.28,3.39,3.8,6.08,1.78,10.87-5.99,14.16-30.39,14.42-43.28,20.06-9.62,4.21-22.16,14.68-32.86,15.6-7.09.61-15.2-.28-22.33-.5-1.52-14.18,2.33-28.62,6.34-42.1,13.66-2.09,25.58-9.65,35.17-19.29l1.12.79c.17,2.93.54,5.96,1.27,8.8.88,3.43,2.76,6.22,3.6,9.58ZM223.65,202.83c-7.07-.41-14.08,1.33-20.49,4.22l-3.99,2.48c6.23.65,13.24-.78,19.04-3.27,1.79-.77,4.35-1.85,5.43-3.44Z"/>
  <path class="cls-2" d="M301.16,131.36c16.54,1.87,31.39,17.75,36,33.09,1.63,5.44,3.05,12.83,1.39,18.26-15.86-2.73-33.15-9.91-40.77-24.95-3.97-7.84-5.83-17.65-5.98-26.4,2.99.24,6.43-.33,9.36,0ZM328.75,165.89c-1.61-14.33-11.72-26.4-26.87-26.38-.49,4.8,1.4,3.55,4.69,4.67,6.64,2.27,11.16,5.28,15.67,10.72l6.51,10.99Z"/>
  <path class="cls-2" d="M222.22,128.96c.13,8.99-1.39,18.91-5.35,27.03-7.09,14.54-24.49,22.53-39.76,25.25-3.27-26.18,17.35-53.96,45.11-52.28ZM212.14,137.59c-14.13.09-24.84,12.68-24.95,26.38l3.27-7.03c3.75-6.46,8.99-11.41,15.93-14.3,1.02-.42,5.53-1.5,5.69-1.75.35-.54-.09-2.47.06-3.3Z"/>
  <path class="cls-2" d="M239.48,110.74c6.85,11.59,19.24,18.11,30.24,6.95.84-.85,3.18-4.79,3.44-4.94s1.27-.16,1.35-.09c.32.26,1.59,6.43,2.31,8.01.66,1.43,1.82,3.15,2.77,4.42,1.26,1.7,3.61,2.46,2.87,4.85-.99,3.22-6.9,8.19-9.87,9.83-10.96,6.03-34,4.25-40.42-7.58-2.57-4.73-.99-3.89,1.17-7.18,2.14-3.26,3.51-6.62,4.48-10.39.37-1.45-.37-3.91,1.64-3.86Z"/>
  <path class="cls-2" d="M260.13,182.68h-8.64v-8.87c0-.31-3.56-2.56-4.41-4.22-2.34-4.52-.2-10.05,4.26-12.24,9.77-4.79,20.22,6.38,12.1,14.49-.47.47-3.31,2.23-3.31,2.45v8.39Z"/>
  <path class="cls-2" d="M259.65,61.81c5.49-2.77,9.4-6.86,9.12-13.43,3.14.47,4.28,3.78,5.53,6.24l7.42-5.76c1.72,9.2,2.64,18.61,1.32,27.93-1.59,11.19-12.28,37.12-24.8,39.48-9.43,1.77-17.49-9.44-21.07-16.88-6.07-12.61-10.3-27.38-8.22-41.42l1.91,1.92c-.94-3.81-1.73-8.06,0-11.78.62-.5,8.06,3.37,9.6,2.44l16.57-17.51c5.07,8.52,6.07,19.47,2.64,28.77ZM235.17,75.73c-.28,4.4,6.55,8.79,10.07,10.8,2.85,1.63,7.85,4.9,6.71-.96-.38-1.95-8.44-6.14-10.53-7.22-.91-.47-5.77-3.12-6.25-2.63ZM277.4,75.73c-.47-.49-5.33,2.15-6.25,2.63-2.09,1.08-10.15,5.26-10.53,7.22-1.14,5.85,3.86,2.58,6.71.96,3.52-2.01,10.35-6.4,10.07-10.8Z"/>
</svg>